<svg width="174" height="210" viewBox="0 0 174 210" fill="none" xmlns="http://www.w3.org/2000/svg">
<rect width="174" height="210" rx="7" fill="#D2D2D2"/>
<rect x="2" y="3" width="169" height="204" rx="7" fill="#F3F3F3"/>
<rect x="5.5" y="7.5" width="161" height="194" rx="6.5" fill="#D6D6D6" stroke="#A3A3A3"/>
<rect x="4.5" y="6.5" width="163" height="196" rx="7.5" fill="url(#paint0_linear_4_343)" stroke="#C4C4C4"/>
<g filter="url(#filter0_i_4_343)">
<path d="M5 194.5V166L40 202H14.5C6.9 202 5 197 5 194.5Z" fill="#AAAAAA"/>
</g>
<path d="M5.75 194.917V169.85L36.2269 201.25H13.9571C10.5529 201.25 8.52696 200.136 7.346 198.839C6.144 197.519 5.75 195.935 5.75 194.917Z" fill="url(#paint1_angular_4_343)" stroke="url(#paint2_linear_4_343)" stroke-width="1.5"/>
<rect x="5" y="24" width="162" height="3" fill="#FEFEFE"/>
<rect x="5" y="31" width="162" height="3" fill="#FEFEFE"/>
<rect x="5" y="38" width="162" height="3" fill="#FEFEFE"/>
<rect x="5" y="45" width="162" height="3" fill="#FEFEFE"/>
<rect x="5" y="52" width="162" height="3" fill="#FEFEFE"/>
<rect x="5" y="59" width="162" height="3" fill="#FEFEFE"/>
<rect x="5" y="66" width="162" height="3" fill="#FEFEFE"/>
<rect x="5" y="73" width="162" height="3" fill="#FEFEFE"/>
<rect x="5" y="80" width="162" height="3" fill="#FEFEFE"/>
<rect x="5" y="87" width="162" height="3" fill="#FEFEFE"/>
<rect x="5" y="94" width="162" height="3" fill="#FEFEFE"/>
<rect x="5" y="101" width="162" height="3" fill="#FEFEFE"/>
<rect x="5" y="108" width="162" height="3" fill="#FEFEFE"/>
<rect x="5" y="115" width="162" height="3" fill="#FEFEFE"/>
<path opacity="0.2" d="M66.8906 145.76H68.5996C68.5449 146.411 68.3626 146.993 68.0527 147.503C67.7428 148.009 67.3076 148.408 66.7471 148.699C66.1865 148.991 65.5052 149.137 64.7031 149.137C64.0879 149.137 63.5342 149.027 63.042 148.809C62.5498 148.585 62.1283 148.271 61.7773 147.865C61.4264 147.455 61.1576 146.961 60.9707 146.382C60.7884 145.803 60.6973 145.156 60.6973 144.44V143.613C60.6973 142.898 60.7907 142.251 60.9775 141.672C61.1689 141.093 61.4424 140.599 61.7979 140.188C62.1533 139.774 62.5794 139.457 63.0762 139.238C63.5775 139.02 64.1403 138.91 64.7646 138.91C65.5576 138.91 66.2275 139.056 66.7744 139.348C67.3213 139.639 67.7451 140.043 68.0459 140.558C68.3512 141.073 68.5381 141.663 68.6064 142.328H66.8975C66.8519 141.9 66.7516 141.533 66.5967 141.228C66.4463 140.922 66.223 140.69 65.9268 140.53C65.6305 140.366 65.2432 140.284 64.7646 140.284C64.3727 140.284 64.0309 140.357 63.7393 140.503C63.4476 140.649 63.2038 140.863 63.0078 141.146C62.8118 141.428 62.6637 141.777 62.5635 142.191C62.4678 142.602 62.4199 143.071 62.4199 143.6V144.44C62.4199 144.942 62.4632 145.397 62.5498 145.808C62.641 146.213 62.7777 146.562 62.96 146.854C63.1468 147.145 63.3838 147.371 63.6709 147.53C63.958 147.69 64.3021 147.77 64.7031 147.77C65.1908 147.77 65.585 147.692 65.8857 147.537C66.1911 147.382 66.4212 147.157 66.5762 146.86C66.7357 146.56 66.8405 146.193 66.8906 145.76ZM71.7834 139.047V149H70.0676V139.047H71.7834ZM77.7649 139.047L73.7317 143.839L71.4348 146.272L71.134 144.57L72.7746 142.547L75.6731 139.047H77.7649ZM75.9192 149L72.6448 144.283L73.8274 143.114L77.9563 149H75.9192ZM82.5552 144.502H80.019L80.0053 143.251H82.2202C82.5939 143.251 82.9106 143.196 83.1704 143.087C83.4347 142.973 83.6352 142.811 83.7719 142.602C83.9087 142.387 83.977 142.13 83.977 141.829C83.977 141.496 83.9132 141.225 83.7856 141.016C83.658 140.806 83.4621 140.653 83.1977 140.558C82.938 140.462 82.6053 140.414 82.1997 140.414H80.5385V149H78.8227V139.047H82.1997C82.7466 139.047 83.2342 139.099 83.6626 139.204C84.0955 139.309 84.4624 139.473 84.7632 139.696C85.0685 139.915 85.2986 140.193 85.4536 140.53C85.6131 140.868 85.6928 141.269 85.6928 141.733C85.6928 142.144 85.5949 142.52 85.3989 142.861C85.2029 143.199 84.9135 143.474 84.5307 143.688C84.1479 143.903 83.6717 144.03 83.102 144.071L82.5552 144.502ZM82.48 149H79.479L80.2514 147.64H82.48C82.8673 147.64 83.1909 147.576 83.4507 147.448C83.7104 147.316 83.9041 147.136 84.0317 146.908C84.1639 146.676 84.23 146.405 84.23 146.095C84.23 145.771 84.173 145.491 84.0591 145.254C83.9451 145.012 83.7651 144.828 83.519 144.7C83.2729 144.568 82.9516 144.502 82.5552 144.502H80.6274L80.6411 143.251H83.1499L83.5395 143.723C84.0864 143.741 84.5353 143.862 84.8862 144.085C85.2417 144.308 85.506 144.598 85.6792 144.953C85.8524 145.309 85.9389 145.691 85.9389 146.102C85.9389 146.735 85.7999 147.266 85.5219 147.694C85.2485 148.123 84.8543 148.449 84.3393 148.672C83.8244 148.891 83.2046 149 82.48 149ZM94.1745 145.452V146.765H86.9968L86.9421 145.773L91.2351 139.047H92.5544L91.1257 141.494L88.6579 145.452H94.1745ZM92.9304 139.047V149H91.2829V139.047H92.9304ZM99.6826 139.013V149H98.0351V140.968L95.5947 141.795V140.435L99.4843 139.013H99.6826ZM108.028 138.985H108.233V140.332H108.116C107.529 140.332 107.02 140.423 106.592 140.605C106.168 140.788 105.82 141.038 105.546 141.357C105.273 141.676 105.068 142.05 104.931 142.479C104.799 142.902 104.733 143.354 104.733 143.832V145.397C104.733 145.794 104.776 146.145 104.862 146.45C104.949 146.751 105.07 147.004 105.225 147.209C105.384 147.41 105.567 147.562 105.772 147.667C105.977 147.772 106.198 147.824 106.435 147.824C106.681 147.824 106.904 147.774 107.105 147.674C107.305 147.569 107.476 147.425 107.617 147.243C107.759 147.061 107.866 146.844 107.939 146.594C108.012 146.343 108.048 146.07 108.048 145.773C108.048 145.491 108.012 145.227 107.939 144.98C107.87 144.73 107.768 144.511 107.631 144.324C107.494 144.133 107.323 143.985 107.118 143.88C106.918 143.771 106.685 143.716 106.421 143.716C106.093 143.716 105.794 143.793 105.526 143.948C105.261 144.103 105.047 144.306 104.883 144.557C104.723 144.803 104.637 145.065 104.623 145.343L103.994 145.138C104.031 144.714 104.124 144.333 104.275 143.996C104.43 143.659 104.632 143.372 104.883 143.135C105.134 142.898 105.423 142.718 105.751 142.595C106.084 142.467 106.448 142.403 106.845 142.403C107.328 142.403 107.747 142.494 108.103 142.677C108.458 142.859 108.752 143.107 108.985 143.422C109.222 143.732 109.397 144.087 109.511 144.488C109.629 144.885 109.689 145.299 109.689 145.732C109.689 146.211 109.616 146.658 109.47 147.072C109.324 147.482 109.11 147.842 108.827 148.152C108.549 148.462 108.21 148.704 107.809 148.877C107.412 149.05 106.961 149.137 106.455 149.137C105.922 149.137 105.446 149.034 105.027 148.829C104.612 148.624 104.259 148.341 103.967 147.981C103.68 147.621 103.461 147.207 103.311 146.737C103.16 146.268 103.085 145.771 103.085 145.247V144.563C103.085 143.807 103.181 143.094 103.372 142.424C103.564 141.749 103.858 141.155 104.254 140.64C104.655 140.125 105.168 139.721 105.792 139.43C106.417 139.133 107.162 138.985 108.028 138.985Z" fill="black"/>
<defs>
<filter id="filter0_i_4_343" x="5" y="166" width="35" height="36" filterUnits="userSpaceOnUse" color-interpolation-filters="sRGB">
<feFlood flood-opacity="0" result="BackgroundImageFix"/>
<feBlend mode="normal" in="SourceGraphic" in2="BackgroundImageFix" result="shape"/>
<feColorMatrix in="SourceAlpha" type="matrix" values="0 0 0 0 0 0 0 0 0 0 0 0 0 0 0 0 0 0 127 0" result="hardAlpha"/>
<feOffset/>
<feGaussianBlur stdDeviation="5"/>
<feComposite in2="hardAlpha" operator="arithmetic" k2="-1" k3="1"/>
<feColorMatrix type="matrix" values="0 0 0 0 0.776471 0 0 0 0 0.776471 0 0 0 0 0.776471 0 0 0 1 0"/>
<feBlend mode="normal" in2="shape" result="effect1_innerShadow_4_343"/>
</filter>
<linearGradient id="paint0_linear_4_343" x1="86" y1="7" x2="86" y2="202" gradientUnits="userSpaceOnUse">
<stop stop-color="#D9D9D9"/>
<stop offset="1" stop-color="#EEEEEE" stop-opacity="0.47"/>
</linearGradient>
<radialGradient id="paint1_angular_4_343" cx="0" cy="0" r="1" gradientUnits="userSpaceOnUse" gradientTransform="translate(34 210) rotate(-121.159) scale(50.2494 48.6659)">
<stop stop-color="#00B2FF"/>
<stop offset="0.959528" stop-color="#0099EF"/>
</radialGradient>
<linearGradient id="paint2_linear_4_343" x1="21.5" y1="168" x2="21.5" y2="202" gradientUnits="userSpaceOnUse">
<stop stop-color="#EAF5FF"/>
<stop offset="1" stop-color="#7ABCF5"/>
</linearGradient>
</defs>
</svg>
