
<svg width="36" height="36" viewBox="0 0 36 36" fill="none" xmlns="http://www.w3.org/2000/svg">
  <mask id="mask0_98_14721" style="mask-type:alpha" maskUnits="userSpaceOnUse" x="0" y="0" width="36" height="36">
    <rect width="36" height="36" fill="#D9D9D9"/>
  </mask>
  <g mask="url(#mask0_98_14721)">
    <path d="M4.5 21.75C4.3 21.75 4.125 21.675 3.975 21.525C3.825 21.375 3.75 21.2 3.75 21C3.75 20.8 3.825 20.625 3.975 20.475C4.125 20.325 4.3 20.25 4.5 20.25C4.7 20.25 4.875 20.325 5.025 20.475C5.175 20.625 5.25 20.8 5.25 21C5.25 21.2 5.175 21.375 5.025 21.525C4.875 21.675 4.7 21.75 4.5 21.75ZM4.5 15.75C4.3 15.75 4.125 15.675 3.975 15.525C3.825 15.375 3.75 15.2 3.75 15C3.75 14.8 3.825 14.625 3.975 14.475C4.125 14.325 4.3 14.25 4.5 14.25C4.7 14.25 4.875 14.325 5.025 14.475C5.175 14.625 5.25 14.8 5.25 15C5.25 15.2 5.175 15.375 5.025 15.525C4.875 15.675 4.7 15.75 4.5 15.75ZM9 28.5C8.575 28.5 8.2185 28.356 7.9305 28.068C7.6435 27.781 7.5 27.425 7.5 27C7.5 26.575 7.6435 26.219 7.9305 25.932C8.2185 25.644 8.575 25.5 9 25.5C9.425 25.5 9.7815 25.644 10.0695 25.932C10.3565 26.219 10.5 26.575 10.5 27C10.5 27.425 10.3565 27.781 10.0695 28.068C9.7815 28.356 9.425 28.5 9 28.5ZM9 22.5C8.575 22.5 8.2185 22.356 7.9305 22.068C7.6435 21.781 7.5 21.425 7.5 21C7.5 20.575 7.6435 20.2185 7.9305 19.9305C8.2185 19.6435 8.575 19.5 9 19.5C9.425 19.5 9.7815 19.6435 10.0695 19.9305C10.3565 20.2185 10.5 20.575 10.5 21C10.5 21.425 10.3565 21.781 10.0695 22.068C9.7815 22.356 9.425 22.5 9 22.5ZM9 16.5C8.575 16.5 8.2185 16.356 7.9305 16.068C7.6435 15.781 7.5 15.425 7.5 15C7.5 14.575 7.6435 14.2185 7.9305 13.9305C8.2185 13.6435 8.575 13.5 9 13.5C9.425 13.5 9.7815 13.6435 10.0695 13.9305C10.3565 14.2185 10.5 14.575 10.5 15C10.5 15.425 10.3565 15.781 10.0695 16.068C9.7815 16.356 9.425 16.5 9 16.5ZM9 10.5C8.575 10.5 8.2185 10.3565 7.9305 10.0695C7.6435 9.7815 7.5 9.425 7.5 9C7.5 8.575 7.6435 8.2185 7.9305 7.9305C8.2185 7.6435 8.575 7.5 9 7.5C9.425 7.5 9.7815 7.6435 10.0695 7.9305C10.3565 8.2185 10.5 8.575 10.5 9C10.5 9.425 10.3565 9.7815 10.0695 10.0695C9.7815 10.3565 9.425 10.5 9 10.5ZM15 23.25C14.375 23.25 13.844 23.031 13.407 22.593C12.969 22.156 12.75 21.625 12.75 21C12.75 20.375 12.969 19.844 13.407 19.407C13.844 18.969 14.375 18.75 15 18.75C15.625 18.75 16.156 18.969 16.593 19.407C17.031 19.844 17.25 20.375 17.25 21C17.25 21.625 17.031 22.156 16.593 22.593C16.156 23.031 15.625 23.25 15 23.25ZM15 17.25C14.375 17.25 13.844 17.031 13.407 16.593C12.969 16.156 12.75 15.625 12.75 15C12.75 14.375 12.969 13.844 13.407 13.407C13.844 12.969 14.375 12.75 15 12.75C15.625 12.75 16.156 12.969 16.593 13.407C17.031 13.844 17.25 14.375 17.25 15C17.25 15.625 17.031 16.156 16.593 16.593C16.156 17.031 15.625 17.25 15 17.25ZM15 28.5C14.575 28.5 14.219 28.356 13.932 28.068C13.644 27.781 13.5 27.425 13.5 27C13.5 26.575 13.644 26.219 13.932 25.932C14.219 25.644 14.575 25.5 15 25.5C15.425 25.5 15.7815 25.644 16.0695 25.932C16.3565 26.219 16.5 26.575 16.5 27C16.5 27.425 16.3565 27.781 16.0695 28.068C15.7815 28.356 15.425 28.5 15 28.5ZM15 10.5C14.575 10.5 14.219 10.3565 13.932 10.0695C13.644 9.7815 13.5 9.425 13.5 9C13.5 8.575 13.644 8.2185 13.932 7.9305C14.219 7.6435 14.575 7.5 15 7.5C15.425 7.5 15.7815 7.6435 16.0695 7.9305C16.3565 8.2185 16.5 8.575 16.5 9C16.5 9.425 16.3565 9.7815 16.0695 10.0695C15.7815 10.3565 15.425 10.5 15 10.5ZM15 32.25C14.8 32.25 14.625 32.175 14.475 32.025C14.325 31.875 14.25 31.7 14.25 31.5C14.25 31.3 14.325 31.125 14.475 30.975C14.625 30.825 14.8 30.75 15 30.75C15.2 30.75 15.375 30.825 15.525 30.975C15.675 31.125 15.75 31.3 15.75 31.5C15.75 31.7 15.675 31.875 15.525 32.025C15.375 32.175 15.2 32.25 15 32.25ZM15 5.25C14.8 5.25 14.625 5.175 14.475 5.025C14.325 4.875 14.25 4.7 14.25 4.5C14.25 4.3 14.325 4.125 14.475 3.975C14.625 3.825 14.8 3.75 15 3.75C15.2 3.75 15.375 3.825 15.525 3.975C15.675 4.125 15.75 4.3 15.75 4.5C15.75 4.7 15.675 4.875 15.525 5.025C15.375 5.175 15.2 5.25 15 5.25ZM21 23.25C20.375 23.25 19.844 23.031 19.407 22.593C18.969 22.156 18.75 21.625 18.75 21C18.75 20.375 18.969 19.844 19.407 19.407C19.844 18.969 20.375 18.75 21 18.75C21.625 18.75 22.156 18.969 22.593 19.407C23.031 19.844 23.25 20.375 23.25 21C23.25 21.625 23.031 22.156 22.593 22.593C22.156 23.031 21.625 23.25 21 23.25ZM21 17.25C20.375 17.25 19.844 17.031 19.407 16.593C18.969 16.156 18.75 15.625 18.75 15C18.75 14.375 18.969 13.844 19.407 13.407C19.844 12.969 20.375 12.75 21 12.75C21.625 12.75 22.156 12.969 22.593 13.407C23.031 13.844 23.25 14.375 23.25 15C23.25 15.625 23.031 16.156 22.593 16.593C22.156 17.031 21.625 17.25 21 17.25ZM21 28.5C20.575 28.5 20.219 28.356 19.932 28.068C19.644 27.781 19.5 27.425 19.5 27C19.5 26.575 19.644 26.219 19.932 25.932C20.219 25.644 20.575 25.5 21 25.5C21.425 25.5 21.7815 25.644 22.0695 25.932C22.3565 26.219 22.5 26.575 22.5 27C22.5 27.425 22.3565 27.781 22.0695 28.068C21.7815 28.356 21.425 28.5 21 28.5ZM21 10.5C20.575 10.5 20.219 10.3565 19.932 10.0695C19.644 9.7815 19.5 9.425 19.5 9C19.5 8.575 19.644 8.2185 19.932 7.9305C20.219 7.6435 20.575 7.5 21 7.5C21.425 7.5 21.7815 7.6435 22.0695 7.9305C22.3565 8.2185 22.5 8.575 22.5 9C22.5 9.425 22.3565 9.7815 22.0695 10.0695C21.7815 10.3565 21.425 10.5 21 10.5ZM21 32.25C20.8 32.25 20.625 32.175 20.475 32.025C20.325 31.875 20.25 31.7 20.25 31.5C20.25 31.3 20.325 31.125 20.475 30.975C20.625 30.825 20.8 30.75 21 30.75C21.2 30.75 21.375 30.825 21.525 30.975C21.675 31.125 21.75 31.3 21.75 31.5C21.75 31.7 21.675 31.875 21.525 32.025C21.375 32.175 21.2 32.25 21 32.25ZM21 5.25C20.8 5.25 20.625 5.175 20.475 5.025C20.325 4.875 20.25 4.7 20.25 4.5C20.25 4.3 20.325 4.125 20.475 3.975C20.625 3.825 20.8 3.75 21 3.75C21.2 3.75 21.375 3.825 21.525 3.975C21.675 4.125 21.75 4.3 21.75 4.5C21.75 4.7 21.675 4.875 21.525 5.025C21.375 5.175 21.2 5.25 21 5.25ZM27 28.5C26.575 28.5 26.219 28.356 25.932 28.068C25.644 27.781 25.5 27.425 25.5 27C25.5 26.575 25.644 26.219 25.932 25.932C26.219 25.644 26.575 25.5 27 25.5C27.425 25.5 27.781 25.644 28.068 25.932C28.356 26.219 28.5 26.575 28.5 27C28.5 27.425 28.356 27.781 28.068 28.068C27.781 28.356 27.425 28.5 27 28.5ZM27 22.5C26.575 22.5 26.219 22.356 25.932 22.068C25.644 21.781 25.5 21.425 25.5 21C25.5 20.575 25.644 20.2185 25.932 19.9305C26.219 19.6435 26.575 19.5 27 19.5C27.425 19.5 27.781 19.6435 28.068 19.9305C28.356 20.2185 28.5 20.575 28.5 21C28.5 21.425 28.356 21.781 28.068 22.068C27.781 22.356 27.425 22.5 27 22.5ZM27 16.5C26.575 16.5 26.219 16.356 25.932 16.068C25.644 15.781 25.5 15.425 25.5 15C25.5 14.575 25.644 14.2185 25.932 13.9305C26.219 13.6435 26.575 13.5 27 13.5C27.425 13.5 27.781 13.6435 28.068 13.9305C28.356 14.2185 28.5 14.575 28.5 15C28.5 15.425 28.356 15.781 28.068 16.068C27.781 16.356 27.425 16.5 27 16.5ZM27 10.5C26.575 10.5 26.219 10.3565 25.932 10.0695C25.644 9.7815 25.5 9.425 25.5 9C25.5 8.575 25.644 8.2185 25.932 7.9305C26.219 7.6435 26.575 7.5 27 7.5C27.425 7.5 27.781 7.6435 28.068 7.9305C28.356 8.2185 28.5 8.575 28.5 9C28.5 9.425 28.356 9.7815 28.068 10.0695C27.781 10.3565 27.425 10.5 27 10.5ZM31.5 21.75C31.3 21.75 31.125 21.675 30.975 21.525C30.825 21.375 30.75 21.2 30.75 21C30.75 20.8 30.825 20.625 30.975 20.475C31.125 20.325 31.3 20.25 31.5 20.25C31.7 20.25 31.875 20.325 32.025 20.475C32.175 20.625 32.25 20.8 32.25 21C32.25 21.2 32.175 21.375 32.025 21.525C31.875 21.675 31.7 21.75 31.5 21.75ZM31.5 15.75C31.3 15.75 31.125 15.675 30.975 15.525C30.825 15.375 30.75 15.2 30.75 15C30.75 14.8 30.825 14.625 30.975 14.475C31.125 14.325 31.3 14.25 31.5 14.25C31.7 14.25 31.875 14.325 32.025 14.475C32.175 14.625 32.25 14.8 32.25 15C32.25 15.2 32.175 15.375 32.025 15.525C31.875 15.675 31.7 15.75 31.5 15.75Z" fill="#55647B"/>
  </g>
</svg>