<svg width="48" height="48" viewBox="0 0 48 48" fill="none" xmlns="http://www.w3.org/2000/svg">
<path d="M22.6888 29.3333L44.5999 17.7333V26.1111L22.6888 39V29.3333Z" fill="#CDCDCD"/>
<path d="M4 20.3111L22.6889 29.3333V39L4 28.6889V20.3111Z" fill="#DFDFDF"/>
<path d="M22.6889 29.3333L4 20.3111L26.5555 10L44.6 17.7333L22.6889 29.3333Z" fill="#F2F2F2"/>
<g filter="url(#filter0_i_802_66)">
<path d="M22.6888 28.6888L5.28882 20.3111L26.5555 10.6444L43.311 17.7333L22.6888 28.6888Z" fill="#EBEBEB"/>
</g>
<path d="M22.6889 28.0444L5.93335 20.3111L26.5555 11.0311L42.6666 17.7333L22.6889 28.0444Z" fill="#F6F6F6"/>
<path d="M11.7333 17.4755L28.5699 25.2911" stroke="#D7D7D7" stroke-width="0.5"/>
<path d="M23.5245 23.3196L24.2206 22.956L22.6787 22.2432L22.0085 22.5603L23.5245 23.3196Z" fill="#13DA3F"/>
<path d="M19.5245 21.4196L20.2206 21.056L18.6787 20.3432L18.0085 20.6603L19.5245 21.4196Z" fill="#13DA3F"/>
<path d="M15.5245 19.5196L16.2206 19.156L14.6787 18.4432L14.0085 18.7603L15.5245 19.5196Z" fill="#FF4949"/>
<path d="M17.5245 20.5196L18.2206 20.156L16.6787 19.4432L16.0085 19.7603L17.5245 20.5196Z" fill="#00A3FF"/>
<path d="M25.5245 24.2196L26.2206 23.856L24.6787 23.1432L24.0085 23.4603L25.5245 24.2196Z" fill="#13DA3F"/>
<path d="M21.5245 22.3196L22.2206 21.956L20.6787 21.2432L20.0085 21.5603L21.5245 22.3196Z" fill="#13DA3F"/>
<defs>
<filter id="filter0_i_802_66" x="5.28882" y="10.6444" width="38.0222" height="18.0444" filterUnits="userSpaceOnUse" color-interpolation-filters="sRGB">
<feFlood flood-opacity="0" result="BackgroundImageFix"/>
<feBlend mode="normal" in="SourceGraphic" in2="BackgroundImageFix" result="shape"/>
<feColorMatrix in="SourceAlpha" type="matrix" values="0 0 0 0 0 0 0 0 0 0 0 0 0 0 0 0 0 0 127 0" result="hardAlpha"/>
<feOffset/>
<feGaussianBlur stdDeviation="0.5"/>
<feComposite in2="hardAlpha" operator="arithmetic" k2="-1" k3="1"/>
<feColorMatrix type="matrix" values="0 0 0 0 0 0 0 0 0 0 0 0 0 0 0 0 0 0 0.25 0"/>
<feBlend mode="normal" in2="shape" result="effect1_innerShadow_802_66"/>
</filter>
</defs>
</svg>
