<svg width="48" height="48" viewBox="0 0 48 48" fill="none" xmlns="http://www.w3.org/2000/svg">
<mask id="mask0_1001_2" style="mask-type:alpha" maskUnits="userSpaceOnUse" x="4" y="10" width="41" height="29">
<path d="M6.5 30C4 28.5 4 29 4 27.5V21.5C4 20.5 4 20.5 5 20C6 19.5 24.7 10.9 25.5 10.5C26.65 9.925 26.8739 10.2317 27.5 10.5C32.1667 12.5 41.8 16.6 43 17C44.5 17.5 44.5 17.75 44.5 18.5V24.5C44.5 26.5 44.064 26.2616 42 27.5L41.9996 27.5002C36.9995 30.5003 26.9999 36.5 24 38C22.5 38.75 22.5 38.5 20.5 37.5L6.5 30Z" fill="#D9D9D9"/>
</mask>
<g mask="url(#mask0_1001_2)">
<path d="M22.6888 29.3333L44.5999 17.7333V26.1111L22.6888 39V29.3333Z" fill="#C1C1C1"/>
<path d="M4 20.3111L22.6889 29.3333V39L4 28.6889V20.3111Z" fill="#D7D7D7"/>
<path d="M14 27.7966C14 27.4279 14.3854 27.186 14.7174 27.3463L20.7174 30.2429C20.8902 30.3263 21 30.5012 21 30.6931V33.1531C21 33.5337 20.5917 33.7747 20.2585 33.5909L14.2585 30.2805C14.099 30.1926 14 30.0249 14 29.8427V27.7966Z" fill="#C2C2C2"/>
<path d="M6 23.1766C6 23.0989 6.0848 23.0509 6.15145 23.0909L6.45145 23.2709C6.48157 23.2889 6.5 23.3215 6.5 23.3566V26.3041C6.5 26.3858 6.40747 26.433 6.34135 26.3851L6.04135 26.1679C6.01538 26.1491 6 26.119 6 26.0869V23.1766Z" fill="#AFAFAF"/>
<path d="M5 22.6766C5 22.5989 5.0848 22.5509 5.15145 22.5909L5.45145 22.7709C5.48157 22.7889 5.5 22.8215 5.5 22.8566V25.8041C5.5 25.8858 5.40747 25.933 5.34135 25.8851L5.04135 25.6679C5.01538 25.6491 5 25.619 5 25.5869V22.6766Z" fill="#AFAFAF"/>
<path d="M7 23.6766C7 23.5989 7.0848 23.5509 7.15145 23.5909L7.45145 23.7709C7.48157 23.7889 7.5 23.8215 7.5 23.8566V26.8041C7.5 26.8858 7.40747 26.933 7.34135 26.8851L7.04135 26.6679C7.01538 26.6491 7 26.619 7 26.5869V23.6766Z" fill="#AFAFAF"/>
<path d="M8 24.1766C8 24.0989 8.0848 24.0509 8.15145 24.0909L8.45145 24.2709C8.48157 24.2889 8.5 24.3215 8.5 24.3566V27.3041C8.5 27.3858 8.40747 27.433 8.34135 27.3851L8.04135 27.1679C8.01538 27.1491 8 27.119 8 27.0869V24.1766Z" fill="#AFAFAF"/>
<path d="M22.6888 28.6888L10 22.5L11.5 17.5L26.5555 10.6444L43.311 17.7333L22.6888 28.6888Z" fill="#EBEBEB"/>
<path d="M9 24.6766C9 24.5989 9.0848 24.5509 9.15145 24.5909L9.45145 24.7709C9.48157 24.7889 9.5 24.8215 9.5 24.8566V27.8041C9.5 27.8858 9.40747 27.933 9.34135 27.8851L9.04135 27.6679C9.01538 27.6491 9 27.619 9 27.5869V24.6766Z" fill="#AFAFAF"/>
<path d="M22.6889 29.3333L4 20.3111L26.5555 10L45 17.5L22.6889 29.3333Z" fill="#EBEBEB"/>
<path d="M22.647 28.1352L22.6914 28.1557L22.7348 28.1333L42.7125 17.8222L42.9035 17.7236L42.705 17.641L26.5939 10.9388L26.5539 10.9221L26.5145 10.9399L5.89231 20.2199L5.69222 20.3099L5.89144 20.4019L22.647 28.1352Z" fill="#E1E1E1" stroke="#CECECE" stroke-width="0.2"/>
<mask id="mask1_1001_2" style="mask-type:alpha" maskUnits="userSpaceOnUse" x="5" y="11" width="38" height="18">
<path d="M22.6889 28.0444L5.93335 20.3111L26.5555 11.0311L42.6666 17.7333L22.6889 28.0444Z" fill="#F6F6F6"/>
</mask>
<g mask="url(#mask1_1001_2)">
<path d="M5.57241 20.2504L11.5 17.5L10 22.5L5.57241 20.2504Z" fill="#1E88E5"/>
<path d="M13 17L29.8366 24.8156" stroke="#FBFBFB" stroke-width="0.5"/>
<path d="M14 16.5L30.8366 24.3156" stroke="#FBFBFB" stroke-width="0.5"/>
<path d="M15 16L31.8366 23.8156" stroke="#FBFBFB" stroke-width="0.5"/>
<path d="M16 15.5L32.8366 23.3156" stroke="#FBFBFB" stroke-width="0.5"/>
<path d="M17 15L33.8366 22.8156" stroke="#FBFBFB" stroke-width="0.5"/>
<path d="M18 14.5L34.8366 22.3156" stroke="#FBFBFB" stroke-width="0.5"/>
<path d="M19 14L35.8366 21.8156" stroke="#FBFBFB" stroke-width="0.5"/>
<path d="M20 13.5L36.8366 21.3156" stroke="#FBFBFB" stroke-width="0.5"/>
<path d="M21 13L37.8366 20.8156" stroke="#FBFBFB" stroke-width="0.5"/>
<path d="M22 12.5L38.8366 20.3156" stroke="#FBFBFB" stroke-width="0.5"/>
<path d="M23 12L39.8366 19.8156" stroke="#FBFBFB" stroke-width="0.5"/>
<path d="M24 11.5L40.5 19" stroke="#FBFBFB" stroke-width="0.5"/>
</g>
<path d="M24 30.0973C24 29.7294 24.202 29.3912 24.5259 29.2168L42.0259 19.7937C42.6921 19.435 43.5 19.9175 43.5 20.6742V25.416C43.5 25.7768 43.3056 26.1097 42.9913 26.2869L25.4913 36.1587C24.8247 36.5348 24 36.0531 24 35.2878V30.0973Z" fill="#B0B0B0"/>
<path d="M25.5 30.2975C25.5 30.1142 25.6003 29.9455 25.7615 29.8581L28.2615 28.5009C28.5946 28.3201 29 28.5613 29 28.9404V32.2098C29 32.3893 28.9039 32.5549 28.7481 32.644L26.2481 34.0725C25.9147 34.263 25.5 34.0223 25.5 33.6384V30.2975Z" fill="#9A9A9A"/>
<path d="M30 28.0816C30 27.97 30.062 27.8676 30.161 27.8158L36.061 24.7297C36.2607 24.6252 36.5 24.7701 36.5 24.9955V27.7232C36.5 27.8323 36.4408 27.9328 36.3453 27.9857L30.4453 31.2533C30.2454 31.3641 30 31.2195 30 30.9909V28.0816Z" fill="#9A9A9A"/>
<path d="M37 24.2535C37 24.2201 37.0167 24.1889 37.0445 24.1703L37.1445 24.1036C37.211 24.0593 37.3 24.107 37.3 24.1869V26.0702C37.3 26.106 37.2808 26.1391 37.2497 26.1569L37.1497 26.2142C37.083 26.2524 37 26.2043 37 26.1275V24.2535Z" fill="#9A9A9A"/>
</g>
</svg>
