<svg width="76" height="76" viewBox="0 0 76 76" fill="none" xmlns="http://www.w3.org/2000/svg">
    <g id="Group 2">
        <g id="Oval + Oval Copy 2 + Path 2 + Path 3 + Path 4 + Path 6 + Oval Copy + Path 7 + Path 8 + Path 5 + Path 9 + Path 10 Mask">
            <g id="Mask" filter="url(#filter0_d)">
                <rect x="3" y="3" width="70" height="70" rx="5" fill="url(#paint0_linear)"/>
            </g>
            <mask id="mask0" mask-type="alpha" maskUnits="userSpaceOnUse" x="3" y="3" width="70" height="70">
                <rect id="Mask_2" x="3" y="3" width="70" height="70" rx="5" fill="white"/>
            </mask>
            <g mask="url(#mask0)">
                <ellipse id="Oval" cx="63.0859" cy="67.135" rx="2.01923" ry="2.02532" stroke="#578E60" stroke-width="2"/>
                <ellipse id="Oval Copy 2" cx="23.1923" cy="68.4852" rx="2.01923" ry="2.02532" stroke="#578E60" stroke-width="2"/>
                <path id="Path 2" opacity="0.4" d="M1.65385 12.4515L11.7664 17.8866V56.9392L29.294 65.1255V73.4081" stroke="#89DC94" stroke-width="2"/>
                <path id="Path 3" opacity="0.4" d="M7.11471 1.66956V10.6655L31.9587 24.0548V48.5043H66.916L75.3045 39.8756" stroke="#89DC94" stroke-width="2"/>
                <path id="Path 4" opacity="0.6" d="M73 8.82145H64.2382L59.1428 17.909H31.8687L14.2418 8.82145V6.27596H20.6643L25.9655 1.66956" stroke="#89DC94" stroke-width="2"/>
                <path id="Path 6" d="M67.1244 17.909H73" stroke="#6AAD74" stroke-width="2"/>
                <ellipse id="Oval Copy" cx="65.1051" cy="17.8523" rx="2.01923" ry="2.02532" stroke="#6AAD74" stroke-width="2"/>
                <path id="Path 7" opacity="0.4" d="M48.6279 73.211V62.8253H66.4612L75.3045 70.1249" stroke="#89DC94" stroke-width="2"/>
                <path id="Path 8" opacity="0.6" d="M53.9718 2.99999V12.4515H33.8406V1.66956" stroke="#89DC94" stroke-width="2"/>
                <path id="Path 5" d="M61.6977 66.9643H55.3133L52.1346 73.4081" stroke="#578E60" stroke-width="2"/>
                <path id="Path 9" opacity="0.6" d="M3 42.9298H7.90413V73.211" stroke="#6AAD74" stroke-width="2"/>
                <path id="Path 10" d="M21.1731 68.4852H14.2418L11.0799 73.4081" stroke="#578E60" stroke-width="2"/>
            </g>
        </g>
        <rect id="Rectangle" x="16.2911" y="10.3194" width="43.4177" height="54.9367" rx="2" fill="url(#paint1_linear)"/>
        <rect id="Rectangle_2" x="59.7089" y="14.7497" width="1.77215" height="3.5443" fill="#8792A2"/>
        <rect id="Rectangle Copy 35" x="16.2911" y="60.8257" width="1.77215" height="3.5443" transform="rotate(-180 16.2911 60.8257)" fill="#8792A2"/>
        <rect id="Rectangle Copy 8" x="59.7089" y="20.0662" width="0.886076" height="3.5443" fill="#82743D"/>
        <rect id="Rectangle Copy 37" x="16.2911" y="56.3953" width="0.886076" height="3.5443" transform="rotate(-180 16.2911 56.3953)" fill="#82743D"/>
        <rect id="Rectangle Copy 9" x="59.7089" y="24.4966" width="0.886076" height="3.5443" fill="#82743D"/>
        <rect id="Rectangle Copy 38" x="16.2911" y="51.9649" width="0.886076" height="3.5443" transform="rotate(-180 16.2911 51.9649)" fill="#82743D"/>
        <rect id="Rectangle Copy 20" x="59.7089" y="28.9269" width="0.886076" height="3.5443" fill="#82743D"/>
        <rect id="Rectangle Copy 39" x="16.2911" y="46.6485" width="0.886076" height="3.5443" transform="rotate(-180 16.2911 46.6485)" fill="#82743D"/>
        <rect id="Rectangle Copy 22" x="59.7089" y="34.2434" width="0.886076" height="3.5443" fill="#82743D"/>
        <rect id="Rectangle Copy 40" x="16.2911" y="42.2181" width="0.886076" height="3.5443" transform="rotate(-180 16.2911 42.2181)" fill="#82743D"/>
        <rect id="Rectangle Copy 24" x="59.7089" y="38.6738" width="0.886076" height="3.5443" fill="#82743D"/>
        <rect id="Rectangle Copy 41" x="16.2911" y="37.7877" width="0.886076" height="3.5443" transform="rotate(-180 16.2911 37.7877)" fill="#82743D"/>
        <rect id="Rectangle Copy 26" x="59.7089" y="43.1042" width="0.886076" height="3.5443" fill="#82743D"/>
        <rect id="Rectangle Copy 42" x="16.2911" y="32.4713" width="0.886076" height="3.5443" transform="rotate(-180 16.2911 32.4713)" fill="#82743D"/>
        <rect id="Rectangle Copy 28" x="59.7089" y="48.4206" width="0.886076" height="3.5443" fill="#82743D"/>
        <rect id="Rectangle Copy 43" x="16.2911" y="28.0409" width="0.886076" height="3.5443" transform="rotate(-180 16.2911 28.0409)" fill="#82743D"/>
        <rect id="Rectangle Copy 30" x="59.7089" y="52.851" width="0.886076" height="3.5443" fill="#82743D"/>
        <rect id="Rectangle Copy 44" x="16.2911" y="23.6105" width="0.886076" height="3.5443" transform="rotate(-180 16.2911 23.6105)" fill="#82743D"/>
        <rect id="Rectangle Copy 32" x="59.7089" y="57.2814" width="0.886076" height="3.5443" fill="#82743D"/>
        <rect id="Rectangle Copy 45" x="16.2911" y="18.2941" width="0.886076" height="3.5443" transform="rotate(-180 16.2911 18.2941)" fill="#82743D"/>
        <rect id="Rectangle Copy 3" x="59.7089" y="20.0662" width="1.77215" height="3.5443" fill="#8792A2"/>
        <rect id="Rectangle Copy 46" x="16.2911" y="56.3953" width="1.77215" height="3.5443" transform="rotate(-180 16.2911 56.3953)" fill="#8792A2"/>
        <rect id="Rectangle Copy 10" x="59.7089" y="24.4966" width="1.77215" height="3.5443" fill="#8792A2"/>
        <rect id="Rectangle Copy 47" x="16.2911" y="51.9649" width="1.77215" height="3.5443" transform="rotate(-180 16.2911 51.9649)" fill="#8792A2"/>
        <rect id="Rectangle Copy 21" x="59.7089" y="28.9269" width="1.77215" height="3.5443" fill="#8792A2"/>
        <rect id="Rectangle Copy 48" x="16.2911" y="46.6485" width="1.77215" height="3.5443" transform="rotate(-180 16.2911 46.6485)" fill="#8792A2"/>
        <rect id="Rectangle Copy 23" x="59.7089" y="34.2434" width="1.77215" height="3.5443" fill="#8792A2"/>
        <rect id="Rectangle Copy 49" x="16.2911" y="42.2181" width="1.77215" height="3.5443" transform="rotate(-180 16.2911 42.2181)" fill="#8792A2"/>
        <rect id="Rectangle Copy 25" x="59.7089" y="38.6738" width="1.77215" height="3.5443" fill="#8792A2"/>
        <rect id="Rectangle Copy 50" x="16.2911" y="37.7877" width="1.77215" height="3.5443" transform="rotate(-180 16.2911 37.7877)" fill="#8792A2"/>
        <rect id="Rectangle Copy 27" x="59.7089" y="43.1042" width="1.77215" height="3.5443" fill="#8792A2"/>
        <rect id="Rectangle Copy 51" x="16.2911" y="32.4713" width="1.77215" height="3.5443" transform="rotate(-180 16.2911 32.4713)" fill="#8792A2"/>
        <rect id="Rectangle Copy 29" x="59.7089" y="48.4206" width="1.77215" height="3.5443" fill="#8792A2"/>
        <rect id="Rectangle Copy 52" x="16.2911" y="28.0409" width="1.77215" height="3.5443" transform="rotate(-180 16.2911 28.0409)" fill="#8792A2"/>
        <rect id="Rectangle Copy 31" x="59.7089" y="52.851" width="1.77215" height="3.5443" fill="#8792A2"/>
        <rect id="Rectangle Copy 53" x="16.2911" y="23.6105" width="1.77215" height="3.5443" transform="rotate(-180 16.2911 23.6105)" fill="#8792A2"/>
        <rect id="Rectangle Copy 33" x="59.7089" y="57.2814" width="1.77215" height="3.5443" fill="#8792A2"/>
        <rect id="Rectangle Copy 54" x="16.2911" y="18.2941" width="1.77215" height="3.5443" transform="rotate(-180 16.2911 18.2941)" fill="#8792A2"/>
        <path id="Rectangle_3" d="M17.1772 12.2054C17.1772 11.6531 17.6249 11.2054 18.1772 11.2054H57.8228C58.3751 11.2054 58.8228 11.6531 58.8228 12.2054V12.9776H17.1772V12.2054Z" fill="url(#paint2_linear)"/>
        <path id="Rectangle Copy" d="M58.8228 63.37C58.8228 63.9223 58.3751 64.37 57.8228 64.37H18.1772C17.6249 64.37 17.1772 63.9223 17.1772 63.37V62.5978L58.8228 62.5978V63.37Z" fill="#3E4740"/>
        <path id="FW" opacity="0.3" fill-rule="evenodd" clip-rule="evenodd" d="M22.8698 21.0758H25.2933V20.0449H22.8698V18.4431H25.5963V17.408H21.6076V23.6105H22.8698V21.0758ZM31.8686 17.408L31.0439 21.8213L30.0383 17.408H28.9696L27.9598 21.8128L27.1309 17.408H25.8729L27.2319 23.6105H28.5026L29.4998 19.4613L30.4969 23.6105H31.7676L33.1266 17.408H31.8686Z" fill="white"/>
        <path id="BRIDGE" opacity="0.3" fill-rule="evenodd" clip-rule="evenodd" d="M36.1421 28.4318C36.0041 28.5945 35.8129 28.7177 35.5685 28.8014C35.324 28.8851 35.0463 28.9269 34.7355 28.9269C34.416 28.9269 34.1331 28.8614 33.8869 28.7303C33.6407 28.5992 33.4508 28.4117 33.3172 28.1676C33.1836 27.9236 33.1142 27.6389 33.1089 27.3135V27.0434C33.1089 26.5222 33.2469 26.1151 33.5228 25.8221C33.7987 25.5291 34.1837 25.3826 34.6779 25.3826C35.1022 25.3826 35.4392 25.4774 35.6889 25.6669C35.9387 25.8565 36.0888 26.1297 36.1395 26.4867H35.4899C35.4165 26.0713 35.1502 25.8636 34.691 25.8636C34.3941 25.8636 34.1684 25.9603 34.0139 26.1538C33.8594 26.3473 33.7795 26.6312 33.7742 27.0055V27.2709C33.7742 27.6436 33.8611 27.9331 34.0349 28.1392C34.2086 28.3453 34.45 28.4484 34.7591 28.4484C35.0979 28.4484 35.3388 28.3789 35.482 28.2399V27.5647H34.6962V27.1098H36.1421V28.4318ZM21.6076 25.4294V28.879H22.9984C23.4263 28.879 23.755 28.7921 23.9846 28.6184C24.2142 28.4446 24.3291 28.1959 24.3291 27.8721C24.3291 27.6762 24.2727 27.5084 24.1601 27.3686C24.0475 27.2288 23.8881 27.1337 23.6821 27.0831C23.8637 27.0136 24.0016 26.9157 24.0959 26.7894C24.1902 26.663 24.2374 26.5208 24.2374 26.3629C24.2374 26.0533 24.1247 25.8204 23.8995 25.664C23.6742 25.5076 23.3459 25.4294 22.9146 25.4294H21.6076ZM22.2703 28.401V27.323H23.0613C23.4664 27.3309 23.669 27.5141 23.669 27.8727C23.669 28.0385 23.6105 28.168 23.4935 28.2612C23.3765 28.3544 23.2141 28.401 23.0063 28.401H22.2703ZM22.2703 26.8823H22.9199C23.1259 26.8823 23.287 26.8401 23.4031 26.7556C23.5192 26.6711 23.5773 26.5515 23.5773 26.3967C23.5773 26.2261 23.5236 26.1029 23.4162 26.0271C23.3088 25.9513 23.1416 25.9134 22.9146 25.9134H22.2703V26.8823ZM25.6197 27.5505H26.3584L27.1232 28.8796H27.833V28.8488L26.9765 27.4107C27.1965 27.327 27.3681 27.2073 27.4912 27.0518C27.6143 26.8962 27.6759 26.7031 27.6759 26.4725C27.6759 26.1345 27.5562 25.8762 27.317 25.6978C27.0778 25.5193 26.7382 25.43 26.2981 25.43H24.957V28.8796H25.6197V27.5505ZM25.6197 27.0695H26.3007C26.5242 27.0695 26.6989 27.0186 26.8246 26.9167C26.9503 26.8148 27.0132 26.6754 27.0132 26.4985C27.0132 26.3137 26.9551 26.1708 26.839 26.0697C26.7229 25.9686 26.5496 25.9165 26.3191 25.9134H25.6197V27.0695ZM28.3091 28.8796H28.9691V25.43H28.3091V28.8796ZM29.749 28.8796V25.43H30.8753C31.2123 25.43 31.5114 25.498 31.7724 25.6338C32.0335 25.7696 32.2356 25.9623 32.3788 26.2119C32.522 26.4614 32.5936 26.7473 32.5936 27.0695V27.2425C32.5936 27.5694 32.5216 27.8569 32.3775 28.1049C32.2334 28.3528 32.0283 28.5439 31.762 28.6782C31.4957 28.8125 31.1905 28.8796 30.8465 28.8796H29.749ZM30.4117 28.401V25.9134H30.8753C31.2176 25.9134 31.4786 26.0121 31.6585 26.2095C31.8384 26.4069 31.9283 26.6928 31.9283 27.0671V27.259C31.9248 27.6271 31.8301 27.9094 31.6441 28.106C31.4581 28.3027 31.1914 28.401 30.8439 28.401H30.4117ZM37.4982 27.3396H39.0646V26.8658H37.4982V25.9134H39.3108V25.43H36.8355V28.8796H39.3291V28.401H37.4982V27.3396Z" fill="white"/>
        <path id="FORVIDEOVERIFICATION" opacity="0.3" fill-rule="evenodd" clip-rule="evenodd" d="M23.8477 31.6302C23.8477 31.7992 23.8234 31.9475 23.7748 32.075C23.7262 32.2026 23.6568 32.3005 23.5664 32.3688C23.4761 32.4371 23.3722 32.4713 23.2546 32.4713C23.1384 32.4713 23.0348 32.4371 22.9438 32.3688C22.8528 32.3005 22.7825 32.2032 22.733 32.0768C22.6834 31.9504 22.6582 31.8047 22.6576 31.6397V31.5425C22.6576 31.3743 22.6824 31.2259 22.732 31.0971C22.7816 30.9684 22.8515 30.8699 22.9418 30.8016C23.0321 30.7333 23.1357 30.6991 23.2527 30.6991C23.3696 30.6991 23.4732 30.7329 23.5635 30.8004C23.6538 30.8679 23.7236 30.9651 23.7729 31.0918C23.8221 31.2186 23.8471 31.366 23.8477 31.5343V31.6302ZM22.4342 31.7164H21.8569V32.4473H21.6076V30.7225H22.5189V30.9642H21.8569V31.4771H22.4342V31.7164ZM23.5083 31.1007C23.5684 31.2026 23.5985 31.3491 23.5985 31.5402V31.6302C23.5985 31.8245 23.5687 31.9722 23.5093 32.0732C23.4499 32.1743 23.365 32.2249 23.2546 32.2249C23.1456 32.2249 23.0604 32.1731 22.999 32.0697C22.9376 31.9662 22.9068 31.8197 22.9068 31.6302V31.5307C22.9082 31.3451 22.9392 31.2016 22.9999 31.1001C23.0607 30.9986 23.1449 30.9479 23.2527 30.9479C23.363 30.9479 23.4482 30.9988 23.5083 31.1007ZM24.61 31.783H24.3322V32.4476H24.0829V30.7228H24.5874C24.7529 30.7228 24.8806 30.7674 24.9706 30.8567C25.0606 30.9459 25.1056 31.075 25.1056 31.244C25.1056 31.3593 25.0824 31.4559 25.0361 31.5337C24.9898 31.6114 24.9253 31.6713 24.8425 31.7131L25.1647 32.4322V32.4476H24.8977L24.61 31.783ZM24.5884 31.5425H24.3322V30.9645H24.5953C24.682 30.966 24.7471 30.9921 24.7908 31.0426C24.8345 31.0932 24.8563 31.1647 24.8563 31.2571C24.8563 31.3455 24.8327 31.4152 24.7854 31.4661C24.7381 31.5171 24.6724 31.5425 24.5884 31.5425ZM26.3238 32.072L26.6883 30.7228H26.9622L26.446 32.4476H26.2046L25.6903 30.7228H25.9632L26.3238 32.072ZM27.1255 32.4476H27.3738V30.7228H27.1255V32.4476ZM27.6671 32.4476V30.7228H28.0908C28.2176 30.7228 28.33 30.7568 28.4282 30.8247C28.5264 30.8926 28.6024 30.9889 28.6563 31.1137C28.7102 31.2385 28.7371 31.3814 28.7371 31.5425V31.629C28.7371 31.7925 28.71 31.9362 28.6558 32.0602C28.6016 32.1842 28.5244 32.2797 28.4243 32.3469C28.3241 32.414 28.2093 32.4476 28.08 32.4476H27.6671ZM27.9164 32.2083V30.9645H28.0908C28.2195 30.9645 28.3177 31.0138 28.3854 31.1125C28.453 31.2112 28.4868 31.3542 28.4868 31.5414V31.6373C28.4855 31.8213 28.4499 31.9625 28.3799 32.0608C28.31 32.1591 28.2097 32.2083 28.079 32.2083H27.9164ZM29.8107 31.6776H29.2216V32.2083H29.9102V32.4476H28.9723V30.7228H29.9033V30.9645H29.2216V31.4407H29.8107V31.6776ZM31.172 32.075C31.2207 31.9475 31.245 31.7992 31.245 31.6302V31.5343C31.2443 31.366 31.2193 31.2186 31.1701 31.0918C31.1208 30.9651 31.051 30.8679 30.9607 30.8004C30.8704 30.7329 30.7668 30.6991 30.6499 30.6991C30.533 30.6991 30.4294 30.7333 30.339 30.8016C30.2487 30.8699 30.1788 30.9684 30.1292 31.0971C30.0796 31.2259 30.0548 31.3743 30.0548 31.5425V31.6397C30.0555 31.8047 30.0806 31.9504 30.1302 32.0768C30.1798 32.2032 30.25 32.3005 30.341 32.3688C30.432 32.4371 30.5356 32.4713 30.6519 32.4713C30.7694 32.4713 30.8734 32.4371 30.9637 32.3688C31.054 32.3005 31.1234 32.2026 31.172 32.075ZM30.9957 31.5402C30.9957 31.3491 30.9656 31.2026 30.9055 31.1007C30.8454 30.9988 30.7602 30.9479 30.6499 30.9479C30.5422 30.9479 30.4579 30.9986 30.3972 31.1001C30.3364 31.2016 30.3054 31.3451 30.3041 31.5307V31.6302C30.3041 31.8197 30.3348 31.9662 30.3962 32.0697C30.4576 32.1731 30.5428 32.2249 30.6519 32.2249C30.7622 32.2249 30.8471 32.1743 30.9065 32.0732C30.966 31.9722 30.9957 31.8245 30.9957 31.6302V31.5402ZM32.8395 30.7228L32.475 32.072L32.1144 30.7228H31.8415L32.3558 32.4476H32.5971L33.1134 30.7228H32.8395ZM34.1003 31.6776H33.5112V32.2083H34.1998V32.4476H33.2619V30.7228H34.193V30.9645H33.5112V31.4407H34.1003V31.6776ZM34.639 31.783H34.9168L35.2045 32.4476H35.4715V32.4322L35.1494 31.7131C35.2321 31.6713 35.2966 31.6114 35.3429 31.5337C35.3893 31.4559 35.4124 31.3593 35.4124 31.244C35.4124 31.075 35.3674 30.9459 35.2774 30.8567C35.1874 30.7674 35.0597 30.7228 34.8942 30.7228H34.3898V32.4476H34.639V31.783ZM34.639 31.5425H34.8952C34.9792 31.5425 35.0449 31.5171 35.0922 31.4661C35.1395 31.4152 35.1631 31.3455 35.1631 31.2571C35.1631 31.1647 35.1413 31.0932 35.0976 31.0426C35.0539 30.9921 34.9888 30.966 34.9021 30.9645H34.639V31.5425ZM35.6506 32.4476H35.8988V30.7228H35.6506V32.4476ZM37.0188 31.7167H36.4415V32.4476H36.1922V30.7228H37.1035V30.9645H36.4415V31.4774H37.0188V31.7167ZM37.3023 32.4476H37.5506V30.7228H37.3023V32.4476ZM38.9385 31.8861C38.924 32.0701 38.8675 32.2136 38.769 32.3167C38.6705 32.4197 38.5395 32.4713 38.3759 32.4713C38.2616 32.4713 38.161 32.4387 38.074 32.3735C37.9869 32.3084 37.9198 32.2158 37.8725 32.0957C37.8252 31.9757 37.8006 31.8363 37.7986 31.6776V31.5165C37.7986 31.3538 37.8226 31.2105 37.8705 31.0865C37.9185 30.9625 37.9873 30.8669 38.0769 30.7998C38.1666 30.7327 38.2702 30.6991 38.3877 30.6991C38.546 30.6991 38.6735 30.7508 38.77 30.8543C38.8666 30.9577 38.9227 31.1038 38.9385 31.2926H38.6902C38.6784 31.1686 38.6483 31.0792 38.6001 31.0243C38.5518 30.9694 38.481 30.942 38.3877 30.942C38.2794 30.942 38.1961 30.9895 38.138 31.0847C38.0799 31.1799 38.0501 31.3194 38.0488 31.5035V31.6563C38.0488 31.8426 38.0766 31.9848 38.1321 32.0827C38.1876 32.1806 38.2689 32.2296 38.3759 32.2296C38.4738 32.2296 38.5474 32.2032 38.5966 32.1502C38.6459 32.0973 38.6771 32.0093 38.6902 31.8861H38.9385ZM39.3954 32.046H39.951L40.0683 32.4476H40.3284L39.7855 30.7228H39.5619L39.02 32.4476H39.2791L39.3954 32.046ZM39.4653 31.8043H39.8811L39.6732 31.0888L39.4653 31.8043ZM40.9488 30.9645H41.3961V30.7228H40.2582V30.9645H40.7015V32.4476H40.9488V30.9645ZM41.8343 32.4476H41.586V30.7228H41.8343V32.4476ZM43.1995 32.075C43.2481 31.9475 43.2724 31.7992 43.2724 31.6302V31.5343C43.2718 31.366 43.2468 31.2186 43.1976 31.0918C43.1483 30.9651 43.0785 30.8679 42.9882 30.8004C42.8979 30.7329 42.7943 30.6991 42.6774 30.6991C42.5604 30.6991 42.4568 30.7333 42.3665 30.8016C42.2762 30.8699 42.2063 30.9684 42.1567 31.0971C42.1071 31.2259 42.0823 31.3743 42.0823 31.5425V31.6397C42.0829 31.8047 42.1081 31.9504 42.1577 32.0768C42.2073 32.2032 42.2775 32.3005 42.3685 32.3688C42.4595 32.4371 42.5631 32.4713 42.6793 32.4713C42.7969 32.4713 42.9008 32.4371 42.9912 32.3688C43.0815 32.3005 43.1509 32.2026 43.1995 32.075ZM43.0232 31.5402C43.0232 31.3491 42.9931 31.2026 42.933 31.1007C42.8729 30.9988 42.7877 30.9479 42.6774 30.9479C42.5696 30.9479 42.4854 30.9986 42.4247 31.1001C42.3639 31.2016 42.3329 31.3451 42.3315 31.5307V31.6302C42.3315 31.8197 42.3623 31.9662 42.4237 32.0697C42.4851 32.1731 42.5703 32.2249 42.6793 32.2249C42.7897 32.2249 42.8746 32.1743 42.934 32.0732C42.9934 31.9722 43.0232 31.8245 43.0232 31.6302V31.5402ZM44.3963 32.4476H44.6456V30.7228H44.3983V31.9512L43.7569 30.7228H43.5077V32.4476H43.7569V31.2239L44.3963 32.4476Z" fill="white"/>
    </g>
    <defs>
        <filter id="filter0_d" x="0" y="0" width="76" height="76" filterUnits="userSpaceOnUse" color-interpolation-filters="sRGB">
            <feFlood flood-opacity="0" result="BackgroundImageFix"/>
            <feColorMatrix in="SourceAlpha" type="matrix" values="0 0 0 0 0 0 0 0 0 0 0 0 0 0 0 0 0 0 127 0"/>
            <feOffset/>
            <feGaussianBlur stdDeviation="1.5"/>
            <feColorMatrix type="matrix" values="0 0 0 0 0 0 0 0 0 0 0 0 0 0 0 0 0 0 0.5 0"/>
            <feBlend mode="normal" in2="BackgroundImageFix" result="effect1_dropShadow"/>
            <feBlend mode="normal" in="SourceGraphic" in2="effect1_dropShadow" result="shape"/>
        </filter>
        <linearGradient id="paint0_linear" x1="3" y1="3" x2="3" y2="73" gradientUnits="userSpaceOnUse">
            <stop stop-color="#429E4F"/>
            <stop offset="1" stop-color="#3D5D42"/>
        </linearGradient>
        <linearGradient id="paint1_linear" x1="-5.00281" y1="25.1035" x2="25.92" y2="73.0474" gradientUnits="userSpaceOnUse">
            <stop stop-color="#4A5B4D"/>
            <stop offset="1" stop-color="#242E26"/>
        </linearGradient>
        <linearGradient id="paint2_linear" x1="58.8228" y1="11.2054" x2="17.1772" y2="11.2054" gradientUnits="userSpaceOnUse">
            <stop stop-color="#6E7970"/>
            <stop offset="1" stop-color="#95A097"/>
        </linearGradient>
    </defs>
</svg>